<?xml version="1.0" standalone="no"?>
<!DOCTYPE svg PUBLIC "-//W3C//DTD SVG 20010904//EN"
 "http://www.w3.org/TR/2001/REC-SVG-20010904/DTD/svg10.dtd">
<svg version="1.0" xmlns="http://www.w3.org/2000/svg"
 width="145.000000pt" height="145.000000pt" viewBox="0 0 145.000000 145.000000"
 preserveAspectRatio="xMidYMid meet">
<metadata>
Created by potrace 1.14, written by Peter Selinger 2001-2017
</metadata>
<g transform="translate(0.000000,145.000000) scale(0.100000,-0.100000)"
fill="#000000" stroke="none">
<path d="M625 1432 c-70 -12 -148 -37 -214 -70 -93 -46 -236 -177 -287 -265
-33 -56 -78 -176 -89 -236 -10 -53 -16 -84 -17 -90 -10 -35 64 -341 84 -349 4
-2 8 -8 8 -13 0 -13 37 -65 82 -114 49 -54 98 -116 98 -125 0 -4 18 -12 40
-19 22 -7 57 -23 77 -37 20 -13 48 -27 62 -30 14 -3 47 -15 73 -26 26 -12 53
-21 60 -20 7 0 42 3 78 6 133 11 184 18 202 27 10 5 18 7 18 4 0 -9 113 37
164 68 109 64 196 132 196 154 0 5 16 25 36 44 45 43 66 89 94 209 43 180 25
378 -46 506 -102 184 -261 313 -447 361 -56 14 -223 24 -272 15z"/>
</g>
</svg>
